Coordinates
version=1
nRows=6
nColumns=36
inDegrees=yes

Units are S.I. units (second, meters, Newtons, ...)
If the header above contains a line with 'inDegrees', this indicates whether rotational values are in degrees (yes) or radians (no).

endheader
time	pelvis_tilt	pelvis_list	pelvis_rotation	pelvis_tx	pelvis_ty	pelvis_tz	hip_flexion_r	hip_adduction_r	hip_rotation_r	knee_angle_r	knee_angle_r_beta	ankle_angle_r	subtalar_angle_r	mtp_angle_r	hip_flexion_l	hip_adduction_l	hip_rotation_l	knee_angle_l	knee_angle_l_beta	ankle_angle_l	subtalar_angle_l	mtp_angle_l	lumbar_extension	lumbar_bending	lumbar_rotation	arm_flex_r	arm_add_r	arm_rot_r	elbow_flex_r	pro_sup_r	arm_flex_l	arm_add_l	arm_rot_l	elbow_flex_l	pro_sup_l
      4.30416670	    -14.81573712	      0.99816885	      7.05365489	      0.28951488	      1.16602055	     -0.02327223	     21.82584216	     -9.41544805	     -8.43013108	     13.32211259	      0.23251473	    -22.55817910	     -9.70960047	     -7.49999987	     26.87386337	     -4.13640946	     -0.93956933	     17.47218953	      0.30494723	    -11.28684933	     -4.74240848	     -7.49999987	     -2.35412496	     -1.54519587	      1.93185570	    -29.74753462	    -31.70252848	     48.37230073	     30.61382017	     41.03305654	     -9.33197071	    -18.05250481	     32.60676268	     72.28046931	     74.31752516
      4.30833330	    -14.77809593	      0.95462323	      6.98152517	      0.29024935	      1.16204762	     -0.02285118	     21.65070499	     -9.40165862	     -8.23364085	     13.23183137	      0.23093902	    -23.56870591	    -10.29420302	     -7.49999987	     26.92432742	     -4.26177767	     -1.77513611	     17.65705319	      0.30817371	    -11.57920742	     -4.67172724	     -7.49999987	     -2.61533706	     -1.33402388	      2.01142066	    -30.80341966	    -32.27666117	     46.85584970	     31.37708412	     41.68228711	    -10.69711856	    -17.89779291	     31.07557991	     72.72070159	     74.37995022
      4.31250000	    -14.72514592	      0.81728625	      7.04763292	      0.29006705	      1.15114303	     -0.02337832	     21.50516966	     -9.38313601	     -8.44440367	     13.17441572	      0.22993693	    -24.78726024	    -10.77861036	     -7.49999987	     27.06808434	     -4.37759145	     -2.42857708	     17.99509868	      0.31407372	    -12.57743420	     -4.77781512	     -7.49999987	     -2.71998142	     -0.93833756	      2.24350375	    -31.80358522	    -32.70190901	     46.82103299	     31.50490970	     42.01167999	    -11.47272528	    -17.73595659	     30.39497225	     72.53931327	     74.30680296
      4.31666670	    -14.65849074	      0.73503560	      6.93731055	      0.29053650	      1.13495212	     -0.02300435	     21.67321170	     -9.33069599	     -8.94399393	     13.88023400	      0.24225578	    -25.95858128	    -12.13270446	     -7.49999987	     27.12842218	     -4.54779200	     -3.01793746	     18.43717840	      0.32178947	    -13.21531317	     -4.53633959	     -7.49999987	     -2.85824016	     -0.81627717	      2.32681520	    -32.77313428	    -33.01736974	     46.40429776	     30.58700958	     43.40896161	    -12.87404232	    -17.26878397	     29.21557009	     73.01487565	     74.18805619
      4.32083330	    -14.65369711	      0.56846946	      6.93033881	      0.29480701	      1.12768084	     -0.01915512	     21.73624545	     -9.13172776	     -9.00458013	     14.50242429	      0.25311505	    -26.70939808	    -12.64783567	     -7.49999987	     27.23948875	     -4.89666383	     -3.58361359	     18.84463608	      0.32890095	    -13.62924485	     -3.81639361	     -7.49999987	     -2.77155294	     -0.66067998	      2.49560620	    -33.72726967	    -32.81279544	     46.33547537	     29.51436835	     43.59900602	    -14.09714883	    -17.17932535	     28.25154957	     73.20104317	     74.91846679
      4.32500000	    -14.61337213	      0.54883631	      6.98423284	      0.29105289	      1.12207106	     -0.02265327	     21.84789320	     -9.24310366	     -9.12226785	     15.00111761	      0.26181889	    -27.31134796	    -12.38271575	     -7.49999987	     27.34922959	     -4.93282326	     -4.02430879	     19.21230767	      0.33531803	    -14.32452348	     -3.56678544	     -7.49999987	     -2.89700469	     -0.46064472	      2.56289202	    -34.22297047	    -32.93319056	     46.37775612	     29.13648882	     43.67552621	    -14.40262246	    -17.07382191	     28.07641521	     73.34858566	     75.01358151
